<?xml version="1.0" encoding="UTF-8"?><svg xmlns="http://www.w3.org/2000/svg" xmlns:xlink="http://www.w3.org/1999/xlink" viewBox="0 0 1000 562.5"><defs><style>.cls-1,.cls-2,.cls-3,.cls-4,.cls-5,.cls-6,.cls-7,.cls-8,.cls-9,.cls-10,.cls-11,.cls-12{stroke-linecap:round;stroke-linejoin:round;}.cls-1,.cls-2,.cls-13,.cls-14,.cls-11{fill:#425066;}.cls-1,.cls-3,.cls-4,.cls-6,.cls-8,.cls-9,.cls-15,.cls-11,.cls-12{stroke:#425066;}.cls-2,.cls-5,.cls-7{stroke:#fff;}.cls-3,.cls-16{fill:#ccc;}.cls-4,.cls-17{fill:#ced0d1;}.cls-5,.cls-6,.cls-18,.cls-9,.cls-19{fill:#fff;}.cls-7,.cls-8,.cls-20,.cls-21,.cls-22,.cls-15,.cls-10{fill:none;}.cls-23{clip-path:url(#clippath);}.cls-24,.cls-25{fill:#e5e6e8;}.cls-26,.cls-27{fill:#ff6f00;}.cls-28{fill:#87898a;}.cls-29{fill:rgba(66,80,102,.05);}.cls-29,.cls-9,.cls-14,.cls-17,.cls-27,.cls-19,.cls-25{fill-rule:evenodd;}.cls-20{clip-rule:evenodd;}.cls-21,.cls-22,.cls-15{stroke-width:3.19px;}.cls-21,.cls-10{stroke:#ff6f00;}.cls-22{stroke:#e5e6e8;}.cls-10{stroke-width:18.53px;}.cls-11,.cls-12{stroke-width:.75px;}.cls-12{fill:#697587;}</style><clipPath id="clippath"><path class="cls-20" d="M616.94,486.86v-229.89L318.29,84.54v229.89l298.64,172.42Z"/></clipPath></defs><g id="Footer"><g><path class="cls-22" d="M601.84,109.4l200.29,115.64c7.17,4.14,7.21,10.84,.08,14.95l-106.07,61.24c-7.13,4.12-7.09,10.81,.08,14.95l40.13,23.17M151.74,216.65l66.07,38.27c7.18,4.16,7.18,10.88,0,14.98l-54.87,31.34c-7.19,4.11-7.19,10.82,0,14.98l79.87,46.23c7.16,4.14,7.19,10.83,.07,14.94l-82.97,47.92"/><g><path class="cls-18" d="M159.89,430.11c-2.64,0-4.79-2.15-4.79-4.79,0-2.64,2.15-4.79,4.79-4.79,1.28,0,2.48,.5,3.39,1.4s1.4,2.11,1.4,3.39c0,2.64-2.15,4.79-4.79,4.79Z"/><path class="cls-24" d="M159.89,422.13c1.76,0,3.19,1.43,3.19,3.19,0,1.76-1.43,3.19-3.19,3.19s-3.19-1.43-3.19-3.19c0-1.76,1.43-3.19,3.2-3.19m0-3.19c-3.53,0-6.39,2.86-6.39,6.39,0,3.53,2.86,6.39,6.39,6.39s6.39-2.86,6.39-6.39c0-3.53-2.86-6.39-6.39-6.39h0Zm6.39,6.39h0Z"/></g><path class="cls-22" d="M681.94,62.9l119.49,68.98c7.22,4.17,7.2,10.92-.04,15.02l-54.77,31.04c-7.24,4.1-7.26,10.85-.04,15.02l50.52,29.17"/><path class="cls-21" d="M734.65,401.13l-107.62-62.13c-14.35-8.28-37.54-8.33-51.8-.09l-187.42,108.2c-14.26,8.23-37.45,8.19-51.8-.09l-173.52-100.18c-7.17-4.14-7.21-10.84-.08-14.95l53.86-31.1c7.13-4.12,7.09-10.81-.08-14.95l-92.47-53.39"/><path class="cls-15" d="M202.63,93.97l66.7,38.51c7.17,4.14,7.21,10.84,.08,14.95l-55.68,32.15c-7.15,4.13-7.09,10.85,.14,14.99l374.01,213.99c7.23,4.14,7.29,10.86,.14,14.99l-146.33,84.48"/><path class="cls-19" d="M595.45,109.4c0-3.53,2.86-6.39,6.39-6.39s6.39,2.86,6.39,6.39-2.86,6.39-6.39,6.39-6.39-2.86-6.39-6.39"/><path class="cls-24" d="M601.84,106.21c1.76,0,3.19,1.43,3.19,3.19s-1.43,3.19-3.19,3.19-3.19-1.43-3.19-3.19,1.43-3.19,3.19-3.19m0-3.19c-3.53,0-6.39,2.86-6.39,6.39s2.86,6.39,6.39,6.39,6.39-2.86,6.39-6.39-2.86-6.39-6.39-6.39h0Z"/><path class="cls-19" d="M675.55,62.9c0-3.53,2.86-6.39,6.39-6.39s6.39,2.86,6.39,6.39c0,3.53-2.86,6.39-6.39,6.39s-6.39-2.86-6.39-6.39"/><path class="cls-24" d="M681.94,59.7c1.76,0,3.2,1.43,3.2,3.19s-1.43,3.19-3.2,3.19-3.19-1.43-3.19-3.19,1.43-3.19,3.19-3.19m0-3.19c-3.53,0-6.39,2.86-6.39,6.39s2.86,6.39,6.39,6.39,6.39-2.86,6.39-6.39-2.86-6.39-6.39-6.39h0Z"/><g><path class="cls-18" d="M441.68,512.82c-2.64,0-4.79-2.15-4.79-4.79s2.15-4.79,4.79-4.79,4.79,2.15,4.79,4.79-2.15,4.79-4.79,4.79Z"/><path class="cls-13" d="M441.68,504.83c1.76,0,3.19,1.43,3.19,3.19s-1.43,3.2-3.19,3.2-3.19-1.43-3.19-3.2,1.43-3.19,3.19-3.19m0-3.19c-3.53,0-6.39,2.86-6.39,6.39s2.86,6.39,6.39,6.39,6.39-2.86,6.39-6.39-2.86-6.39-6.39-6.39h0Z"/></g><path class="cls-21" d="M866.67,324l-107.93-61.29c-14.38-8.17-37.41-8.15-51.58,.03l-79.55,45.93"/><path class="cls-19" d="M860.28,324c0-3.53,2.86-6.39,6.39-6.39s6.39,2.86,6.39,6.39-2.86,6.39-6.39,6.39-6.39-2.86-6.39-6.39"/><path class="cls-26" d="M866.67,320.8c1.76,0,3.19,1.43,3.19,3.19s-1.43,3.2-3.19,3.2-3.2-1.43-3.2-3.2,1.43-3.19,3.2-3.19m0-3.19c-3.53,0-6.39,2.86-6.39,6.39s2.86,6.39,6.39,6.39,6.39-2.86,6.39-6.39-2.86-6.39-6.39-6.39h0Z"/><path class="cls-19" d="M158.13,216.65c0-3.53-2.86-6.39-6.39-6.39s-6.39,2.86-6.39,6.39c0,3.53,2.86,6.39,6.39,6.39s6.39-2.86,6.39-6.39"/><path class="cls-24" d="M151.74,213.45c1.76,0,3.19,1.43,3.19,3.19s-1.43,3.19-3.19,3.19-3.19-1.43-3.19-3.19,1.43-3.19,3.19-3.19m0-3.19c-3.53,0-6.39,2.86-6.39,6.39s2.86,6.39,6.39,6.39,6.39-2.86,6.39-6.39-2.86-6.39-6.39-6.39h0Z"/><path class="cls-19" d="M130.12,232.44c0-3.53-2.86-6.39-6.39-6.39-3.53,0-6.39,2.86-6.39,6.39s2.86,6.39,6.39,6.39c3.53,0,6.39-2.86,6.39-6.39"/><path class="cls-26" d="M123.73,229.25c1.76,0,3.19,1.43,3.19,3.19s-1.43,3.19-3.19,3.19-3.19-1.43-3.19-3.19,1.43-3.19,3.19-3.19m0-3.19c-3.53,0-6.39,2.86-6.39,6.39s2.86,6.39,6.39,6.39,6.39-2.86,6.39-6.39-2.86-6.39-6.39-6.39h0Z"/><g><path class="cls-18" d="M736.36,344.15c-2.64,0-4.79-2.15-4.79-4.79s2.15-4.79,4.79-4.79c1.28,0,2.48,.5,3.39,1.4s1.4,2.11,1.4,3.39c0,2.64-2.15,4.79-4.79,4.79Z"/><path class="cls-24" d="M736.36,336.16c1.76,0,3.19,1.43,3.19,3.19,0,1.76-1.43,3.19-3.19,3.19s-3.2-1.43-3.2-3.19c0-1.76,1.43-3.19,3.2-3.19m0-3.19c-3.53,0-6.39,2.86-6.39,6.39,0,3.53,2.86,6.39,6.39,6.39s6.39-2.86,6.39-6.39c0-3.53-2.86-6.39-6.39-6.39h0Zm6.39,6.39h0Z"/></g><path class="cls-27" d="M741.04,401.13c0-3.53-2.86-6.39-6.39-6.39s-6.39,2.86-6.39,6.39,2.86,6.39,6.39,6.39,6.39-2.86,6.39-6.39"/><path class="cls-14" d="M196.24,93.97c0-3.53,2.86-6.39,6.39-6.39,3.53,0,6.39,2.86,6.39,6.39,0,3.53-2.86,6.39-6.39,6.39-3.53,0-6.39-2.86-6.39-6.39"/></g><path class="cls-16" d="M780.98,471.96l28.38-37.11-28.38-4.35v41.46Zm10.31,22.1c-5.81,3.35-11.3,5.24-16.47,5.67-5.17,.43-9.69-.46-13.55-2.66-3.86-2.2-6.91-5.63-9.14-10.27-2.23-4.65-3.35-10.3-3.35-16.97,0-6.75,1.12-13.73,3.35-20.96,2.23-7.22,5.28-14.15,9.14-20.76,3.86-6.62,8.38-12.7,13.55-18.25,5.17-5.55,10.66-10,16.47-13.35,5.88-3.4,11.41-5.31,16.58-5.73,5.17-.43,9.67,.45,13.5,2.63,3.83,2.18,6.85,5.6,9.09,10.24,2.23,4.65,3.35,10.34,3.35,17.09,0,6.67-1.12,13.61-3.35,20.84-2.23,7.22-5.26,14.16-9.09,20.8-3.83,6.64-8.33,12.73-13.5,18.28-5.17,5.55-10.7,10.02-16.58,13.41Z"/><path class="cls-16" d="M85.73,425.49l-25.51-43.99,25.72-14.66,4.57,7.88-21.15,12.06,20.94,36.11-4.57,2.61Zm33.8,19.76l-4.57-7.88,21.15-12.06-20.94-36.11,4.57-2.61,25.51,43.99-25.72,14.66Z"/><path class="cls-16" d="M174.47,119.2v-34.39l-40.49,1.62L87.32,30.22l46.66-2.33,46.87,56.33v38.66l-6.38-3.68Zm-40.49-3.5l-30.82-37.18v-25.61l30.82,37.18,30.82-1.6v25.61l-30.82,1.6Z"/><rect class="cls-10" x="-68.6" y="-92.06" width="3616.31" height="739.87"/></g><g id="Main"><g><path class="cls-27" d="M621.14,308.66c0-3.53,2.86-6.39,6.39-6.39s6.39,2.86,6.39,6.39-2.86,6.39-6.39,6.39-6.39-2.86-6.39-6.39"/><path class="cls-21" d="M621.14,308.66c0-3.53,2.86-6.39,6.39-6.39s6.39,2.86,6.39,6.39-2.86,6.39-6.39,6.39-6.39-2.86-6.39-6.39Z"/><path class="cls-29" d="M305.01,360.34l325.38,187.86,13.28-7.67-325.38-187.86-13.28,7.67Z"/><path class="cls-25" d="M305.01,45.97l13.28,38.34,312.1,149.52,13.28-7.67L318.29,38.3l-13.28,7.67Z"/><path class="cls-14" d="M643.67,502.2V226.16l-13.28,7.67-13.28,23,13.28,253.04,13.28-7.67Z"/><path class="cls-17" d="M331.57,306.67V76.64l-26.56-30.67,13.28,268.37,9.48,10.69,3.8-18.36Z"/><path class="cls-17" d="M318.29,314.34l312.1,195.53v-30.67l-298.82-172.52-13.28,7.67Z"/><path class="cls-17" d="M318.29,84.3l298.82,172.52v230.03l-298.82-172.52V84.3Zm-13.28-38.34V322l312.1,180.19,13.28,7.67V233.83l-13.28-7.67L318.29,53.63l-13.28-7.67Z"/><path class="cls-17" d="M612.13,238.62c0-3.18,2.23-4.46,4.98-2.88,2.75,1.59,4.98,5.45,4.98,8.63s-2.23,4.46-4.98,2.88c-2.75-1.59-4.98-5.45-4.98-8.63m-16.6-9.58c0-3.18,2.23-4.46,4.98-2.88,2.75,1.59,4.98,5.45,4.98,8.63s-2.23,4.46-4.98,2.88c-2.75-1.59-4.98-5.45-4.98-8.63m-16.6-9.58c0-3.18,2.23-4.46,4.98-2.88,2.75,1.59,4.98,5.45,4.98,8.63s-2.23,4.46-4.98,2.88c-2.75-1.59-4.98-5.45-4.98-8.63"/><path class="cls-19" d="M616.94,486.86v-229.89L318.29,84.54v229.89l298.64,172.42Z"/><path class="cls-25" d="M323.26,71.83c0-3.17-2.23-7.03-4.98-8.62-2.75-1.59-4.98-.3-4.98,2.87s2.23,7.04,4.98,8.62c2.75,1.59,4.98,.3,4.98-2.88m16.59,9.58c0-3.17-2.23-7.03-4.98-8.62-2.75-1.59-4.98-.3-4.98,2.88s2.23,7.03,4.98,8.62c2.75,1.59,4.98,.3,4.98-2.87m16.59,9.58c0-3.17-2.23-7.03-4.98-8.62s-4.98-.3-4.98,2.87,2.23,7.03,4.98,8.62c2.75,1.59,4.98,.3,4.98-2.88"/></g><g><path class="cls-28" d="M375.36,177.86l-2.45-4.22,15.37-8.77-15.37-26.51,2.45-1.4,16.6,28.63c.32,.56,.51,1.17,.51,1.7,0,.53-.18,.93-.51,1.11l-16.6,9.46Z"/><polygon class="cls-28" points="367.81 172.82 354.73 127.17 357.95 127.58 371.03 173.22 367.81 172.82"/><path class="cls-28" d="M350.4,163.44l-16.6-28.63c-.32-.56-.51-1.17-.51-1.7,0-.53,.18-.93,.51-1.11l16.6-9.46,2.45,4.22-15.37,8.76,15.37,26.52-2.45,1.4Z"/><polygon class="cls-28" points="450.87 240.52 335.02 173.64 335.02 169.67 450.87 236.55 450.87 240.52"/><polygon class="cls-28" points="402.98 237.45 335.02 198.21 335.02 194.24 402.98 233.47 402.98 237.45"/><polygon class="cls-28" points="435.4 280.74 335.02 222.79 335.02 218.81 435.4 276.76 435.4 280.74"/><polygon class="cls-28" points="402.98 286.59 335.02 247.36 335.02 243.38 402.98 282.62 402.98 286.59"/></g><g class="cls-23"><g><path class="cls-1" d="M601.05,479.45l-168.68-97.38s22.56-50.89,36-56.85c0,0,8.38-4.91,30.13,1.93,.83,.26,1.67,.53,2.54,.83,0,0,2.62,.94,7.04,2.8,10,4.21,29.19,13.13,47.88,26.49,2.68,1.92,5.36,3.93,7.99,6.03h0c12.06,9.62,23.3,21.14,30.96,34.49,0,0,12.45,40.87,6.14,81.66Z"/><line class="cls-7" x1="439.23" y1="389.63" x2="452.19" y2="352.59"/><line class="cls-7" x1="539.53" y1="446.39" x2="549.17" y2="427.13"/><path class="cls-2" d="M562.04,346.5l1.91,16.8h0c-8.31,10.63-27.83,30.27-60.21,33.33l-3.9,.37-3.11-2.38c-3.42-2.61-19.48-18.04,.55-65.31l.35-.83,.87-1.33c.83,.26,1.67,.53,2.54,.83,0,0,2.62,.94,7.04,2.8l31.45-47.87,28.73,24.99s-5.81,10.43-7.84,36.29c.9,.45,1.5,1.32,1.62,2.31Z"/><path class="cls-6" d="M568.26,307.9s-5.81,10.43-7.84,36.29c-.05,.66-.1,1.33-.15,2.01-.27,3.95-1.71,7.75-4.15,10.87-.05,.07-.1,.13-.16,.2-7.26,9.24-24.57,26.7-53.16,29.41,0,0-14.33-10.94,3.69-53.47l1.59-2.43,31.45-47.87,28.73,24.99Z"/><path class="cls-6" d="M504.83,331.27s2.57,20.11-.52,35.47"/><path class="cls-6" d="M555.02,300.94s-1.79,7.99-9.99,11.62"/><polygon class="cls-11" points="477.18 255.74 477.18 260.48 506.42 247.65 506.42 244.04 477.18 255.74"/><polygon class="cls-12" points="478.04 256.24 478.04 260.98 507.29 248.15 507.29 244.54 478.04 256.24"/><path class="cls-3" d="M491.63,259.27s-5.88-19.81,10.09-30.45l20.48-11.45c4.06-2.27,8.93-2.61,13.26-.89,1.83,.73,3.9,1.79,6.19,3.33v39.46h-50.03Z"/><path class="cls-5" d="M550.56,324.1c-2.32,3.81-5.33,6.7-8.45,8.88-7.69,5.37-17.33,7.03-26.54,5.27-28.79-5.48-27.82-26.1-27.82-26.1-1.03-9.43-.27-29.16,.59-44.67,.75-13.46,8.23-25.64,19.9-32.39l5.07-2.94,13.01-7.67,41.27,4.34,11.7,59.94-11.03,19.13-17.71,16.21Z"/><path class="cls-6" d="M513.3,232.16l-5.07,2.94c-11.67,6.76-19.15,18.93-19.9,32.39-.86,15.51-1.61,35.24-.59,44.67,0,0-.97,20.61,27.82,26.1,9.21,1.75,18.85,.09,26.54-5.27,3.12-2.18,6.13-5.07,8.45-8.88"/><path class="cls-6" d="M492.94,320.32l2.05,8.07c.69,2.7,2.47,5,4.92,6.33l5.68,3.08c1.64,.89,3.49,1.3,5.36,1.19,3.21-.18,8.48-1.09,14.43-4.53"/><polygon class="cls-16" points="510.58 229.82 516.11 235.77 523.71 229.82 517.77 223.7 510.58 229.82"/><path class="cls-3" d="M514.22,227.16s-5.73,9.67,4,15.2"/><path class="cls-3" d="M552.56,284.9c1.01,3.55,1.93,8.62,.49,12.36,0,0,5.63-.52,6.66-3.93,0,0-2.04-1.14-1.88-4.39s5.52-6.95,5.52-6.95c0,0,5.51-3.76,8.98-1.37l-4.07,27.26s19.19-19.56,24.92-37.79c6.88-21.9-5.95-41.87-25.82-51.27-11.07-5.23-20.9-4.08-32.15-.48,0,0-27.67,8.85-16.99,24,0,0,7.82-11.72,19.28-12.71,0,0-12.79,5.4-16.79,15.88,0,0,7.13-12.14,22.19-8.2,0,0-7.67-.44-16.86,6.4,0,0,14.73-4.42,18.99-.16l-4.63,3.29,9.63,2.77-3.85,4.42s17.04,6.51,7.41,22.91c-1.41,2.41-1.79,5.27-1.02,7.95Z"/><polygon class="cls-11" points="538.66 291.24 538.66 295.98 567.91 283.15 567.91 279.54 538.66 291.24"/><polygon class="cls-12" points="539.53 291.74 539.53 296.48 568.77 283.65 568.77 280.04 539.53 291.74"/><path class="cls-6" d="M557.27,295.1v-2.52c0-4.36,2.31-8.39,6.08-10.58l2.3-1.34c4.45-2.6,10.04,.61,10.04,5.77v7.21c0,4.62-1.64,9.09-4.62,12.62l-.89,1.06c-1.26,1.74-2.13,3.72-2.57,5.82h0c-.33,1.59-1.3,2.96-2.68,3.81h0c-2.57,1.57-5.89-.14-6.11-3.15l-.17-2.27"/><path class="cls-6" d="M570.34,284.1c-.24-.14-.73-.37-1.35-.37-.4,0-.86,.1-1.33,.37l-2.3,1.34c-2.53,1.48-4.09,4.19-4.09,7.13v.87c0,1.06,.39,2.09,1.1,2.88h0c1.24,1.38,1.46,3.39,.54,5l-.73,1.28"/><path class="cls-6" d="M563.69,303.24h1.88c.55,0,1,.45,1,1v1.22l.45-.62,.1-.12,.89-1.06c.87-1.03,1.6-2.17,2.17-3.37"/><path class="cls-3" d="M522.37,275.55l1.75,3.29s6.13,.9,14,6.32c.49,.34,1.06-.32,.65-.75-3.55-3.8-9.91-9.36-16.4-8.86Z"/><path class="cls-3" d="M508.31,267.43l-1.75,1.27s-6.8-6.86-15.28-10.41c-.52-.22-.36-.99,.2-.96,3.45,.18,10.06,1.77,16.83,10.11Z"/><path class="cls-6" d="M493.5,306.48s10.6,12.72,28.34,11.24"/><path class="cls-6" d="M521.28,315.84s1.06,1.41,1.13,3.53"/><path class="cls-6" d="M494.44,305.56s-1.32,.42-1.88,1.84"/><path class="cls-4" d="M518.68,317.83c-13.26-.1-21.97-8-24.45-10.55,.75,.71,1.72,1.13,2.74,1.18,.16,.01,.33,.01,.5,0l.44-.03c.18-.01,.35-.01,.52,.01,.93,.04,1.81,.4,2.52,.99,.23,.21,.45,.43,.64,.68l.35,.47,2.3,.16,.59,.04c.94,.06,1.84,.44,2.54,1.07l.26,.24,2.1,1.87,2.81,2.5c.69,.61,1.56,.99,2.47,1.07l3.67,.3Z"/><path class="cls-6" d="M499.57,317.61l3.11,1.8c1.04,.6,2.22,.92,3.42,.92h.39"/><g><g><path class="cls-4" d="M498.65,272.31c0,1.89-1.34,2.65-2.99,1.7-1.65-.95-2.98-3.26-2.98-5.15,0-.72,.19-1.27,.51-1.63,.76,.07,2.06,.33,3.87,1.14,.95,1.12,1.59,2.63,1.59,3.94Z"/><path class="cls-13" d="M496.03,270.03c0-.2,.07-.35,.16-.46-.16-.18-.34-.33-.53-.44-.7-.4-1.27-.08-1.27,.72s.57,1.78,1.27,2.18c.62,.36,1.14,.14,1.24-.48-.48-.29-.87-.97-.87-1.53Z"/><path class="cls-8" d="M502.67,273.86l-.41-2.36c-2.04-1.51-3.78-2.5-5.2-3.13-1.81-.81-3.11-1.07-3.87-1.14-.54-.04-.81,0-.81,0l-2.61,1.82"/></g><g><path class="cls-4" d="M530.14,290.48c0,1.9-1.34,2.66-2.99,1.71-1.65-.95-2.99-3.26-2.99-5.16,0-1.31,.64-2.07,1.58-2.1,1.84,1.3,3.15,2.57,3.9,3.38,.32,.72,.5,1.48,.5,2.17Z"/><path class="cls-13" d="M527.52,288.2c0-.2,.07-.35,.16-.46-.16-.18-.34-.33-.53-.44-.7-.4-1.27-.08-1.27,.72s.57,1.78,1.27,2.18c.62,.36,1.14,.14,1.24-.48-.48-.29-.87-.97-.87-1.53Z"/><path class="cls-8" d="M520.14,283.95l.41-1.89c2.04,.85,3.77,1.87,5.19,2.87,1.84,1.3,3.15,2.57,3.9,3.38,.53,.55,.79,.89,.79,.89l2.61,4.83"/></g></g><path class="cls-6" d="M506.51,268.11l.87,2.8c.68,2.2,.42,4.58-.72,6.58"/><path class="cls-11" d="M540.4,295.96v-4.74c-13.56-10.72-19.56-13.35-25.56-14.75,0,0-2.41-.82-4.92-2.25-.18-.1-.36-.21-.54-.32-.02,0-.05-.03-.07-.04-.18-.1-.36-.2-.54-.31-2.51-1.46-4.91-3.43-4.91-3.43-6-5.52-12-9.81-25.56-14.75l-.87,.5v4.74l.69,.44c.44,.27,.8,.85,.86,1.39,1.24,11.12,3.55,12.98,3.55,12.98,7.36,7.39,18.8,10.86,18.8,10.86,.45,.12,.86,.02,1.24-.24l.82-.47c1.65-1.08,2.64-5.28,3.12-8.04,.07-.4,.22-.71,.42-.95,.45-.07,.97,.03,1.54,.34h.01s.01,.02,.02,.02c1.39,.82,2.57,2.65,2.83,4.36,.59,4.07,1.93,11.13,4.31,13.23,0,0,11.43,9.75,18.79,10.85,0,0,.24,.08,.62-.13l.81-.47c.76-.4,2.12-2.07,2.98-8.68l.7,.36,.87-.5Zm-35.74-18.11c-.9,3.86-1.68,6.01-2.29,6.93-1.05-.33-11.5-3.78-18.25-10.56l-.08-.07s-2.04-2.1-3.19-12.32c-.09-.84-.62-1.69-1.32-2.13l-.22-.14v-1.92c11.53,4.41,17.27,8.43,23.01,13.72,.17,.14,3.27,2.54,2.35,6.49Zm33.87,16.9s-.02,.02-.03,.02c-.02,0-.03,.02-.05,.03-.02,0-.03,.02-.05,.03-.02,0-.03,.02-.05,.03-.02,0-.03,.02-.05,.03-.02,0-.03,.02-.05,.03-.02,0-.03,.02-.05,.03-.02,0-.03,.02-.05,.03-.02,0-.03,.02-.05,.03-.02,0-.03,.02-.05,.03-.02,0-.03,.02-.05,.03-.02,0-.03,.02-.05,.03-.5,.2-.87,.67-.95,1.28-.6,4.65-1.41,6.63-1.94,7.45-7.01-1.34-17.79-10.46-17.9-10.55-1.55-1.37-2.97-5.98-3.97-12.61-.08-.53-.08-.97-.04-1.35,.05-.43,.25-.81,.54-1.1,.34-.1,.71-.12,1.07-.03,5.74,1.51,11.76,4.55,23.79,14.02v2.54Z"/><g><path class="cls-13" d="M534.52,305.02c-7.22-1.08-18.54-10.68-18.65-10.77-2.29-2.02-3.6-9.01-4.18-13-.28-1.85-1.52-3.75-3.01-4.63l-.04-.02c-.5-.28-.99-.42-1.45-.42-1.01,0-1.72,.67-1.92,1.8-.88,5-2.21,7.99-3.56,7.99-.09,0-.18-.01-.28-.04-.1-.03-11.43-3.53-18.63-10.76-.05-.04-2.25-2.06-3.44-12.76-.07-.65-.5-1.34-1.04-1.67l-.51-.33v-4c12.79,4.71,18.85,8.89,24.93,14.49,.04,.03,2.47,2.02,4.98,3.48,.18,.11,.36,.21,.55,.31l.09,.05c.16,.1,.34,.21,.52,.31,2.51,1.43,4.88,2.24,4.98,2.28,6.16,1.44,12.27,4.29,25.31,14.58v3.94l-.15-.08c-.18-.09-.36-.14-.53-.14-.46,0-.79,.33-.86,.83-1.09,8.47-2.98,8.57-3.06,8.57h-.03Zm-20.29-27.28c-1.2,0-2.21,.87-2.34,2.02-.05,.43-.04,.92,.04,1.45,1.03,6.86,2.49,11.42,4.1,12.84,.12,.1,11.34,9.61,18.45,10.71,.02,0,.04,0,.06,0,.07,0,.13-.02,.19-.05,.4-.23,1.76-1.51,2.64-8.3,.08-.63,.53-1.05,1.11-1.05,.21,0,.43-.17,.43-.37v-2.79c0-.12-.05-.22-.14-.29-12.37-9.74-18.32-12.61-23.92-14.09-.2-.05-.4-.08-.6-.08Zm-31.24-2.75c7.1,7.13,18.37,10.64,18.49,10.67,.08,.02,.16,.03,.23,.03,.41,0,1.5,0,3.31-7.76,.91-3.89-1.89-6.39-2.46-6.86-5.94-5.47-11.77-9.54-24-14.13-.04-.02-.09-.02-.13-.02-.08,0-.15,.02-.21,.07-.1,.07-.16,.19-.16,.31v2.75c0,.13,.07,.25,.18,.32l.22,.14c.6,.37,1.07,1.13,1.15,1.85,1.09,9.76,3.04,12.25,3.27,12.52,.01,.01,.12,.11,.12,.11Z"/><path class="cls-13" d="M504.46,272.68c.87,.63,1.94,1.36,3.05,2,.19,.12,.38,.22,.58,.33l.04,.02c.19,.11,.37,.23,.55,.33,1.95,1.11,3.81,1.85,4.62,2.16-.88,.31-1.55,1.04-1.75,1.96-.58-1.33-1.56-2.52-2.67-3.18-.02-.01-.04-.03-.06-.04-.56-.31-1.11-.47-1.63-.47-.65,0-1.21,.24-1.62,.68,.02-1.55-.51-2.83-1.11-3.78m-27.03-16.82v4.74l.69,.44c.44,.27,.8,.85,.86,1.39,1.24,11.12,3.55,12.98,3.55,12.98,7.36,7.39,18.8,10.86,18.8,10.86,.13,.03,.25,.05,.38,.05,2.15,0,3.38-5.11,3.93-8.3,.17-.96,.76-1.49,1.55-1.49,.38,0,.81,.12,1.27,.38h.01s.01,.02,.02,.02c1.39,.82,2.57,2.65,2.83,4.36,.59,4.07,1.93,11.13,4.31,13.23,0,0,11.43,9.75,18.79,10.85,0,0,.05,.02,.13,.02,.51,0,2.36-.59,3.43-8.9,.04-.32,.23-.5,.49-.5,.11,0,.23,.03,.36,.1l.7,.36v-4.74c-13.56-10.72-19.56-13.35-25.56-14.75,0,0-2.41-.82-4.92-2.25-.18-.1-.36-.21-.54-.32-.02,0-.05-.03-.07-.04-.18-.1-.36-.2-.54-.31-2.51-1.46-4.91-3.43-4.91-3.43-6-5.52-12-9.81-25.56-14.75h0Zm24.27,29.46s-.08,0-.12-.02c-.08-.03-11.26-3.47-18.35-10.59l-.08-.07s-2.04-2.1-3.19-12.32c-.09-.84-.62-1.69-1.32-2.13l-.22-.14v-2.75c12.12,4.55,17.99,8.63,23.88,14.05,.17,.14,3.27,2.54,2.35,6.49-1.27,5.42-2.29,7.47-2.95,7.47h0Zm32.83,19.06c-6.99-1.08-18.14-10.52-18.25-10.62-1.55-1.37-2.97-5.98-3.97-12.61-.08-.53-.08-.97-.04-1.35,.12-.99,1.01-1.69,1.97-1.69,.17,0,.34,.02,.51,.07,5.74,1.51,11.76,4.55,23.79,14.02v2.79s-.04,0-.06,0c-.77,0-1.38,.57-1.48,1.38-.88,6.83-2.22,7.88-2.45,8.02h0Z"/></g><path class="cls-6" d="M506.65,277.49l-10.65,18.62c-.66,1.15-.9,2.55-.47,3.81,.36,1.06,1.19,2.19,2.97,3.01,1.48,.68,3.13,.88,4.75,.72l2.09-.21c.61-.06,1.23-.06,1.85,0l4.21,.38s2.66,.33,1.72-6.24"/></g><path class="cls-9" d="M383.23,294.67c-.55,2.59-.33,6.52,4.91,8.77l25.03,13.15s-.75-15.31-17.13-18c-1.38-.23-2.71-.69-3.9-1.44l-5.89-3.72c-1.17-.74-2.73-.11-3.02,1.24Z"/><path class="cls-9" d="M401.81,304.19c-5.94-1.2-13.42-2.31-19.47-1.91,0,0-16.89-12.63-35.42-10.36-1.28,.16-2.46,.89-3.07,2.02-.5,.92-.62,2.11,.6,3.41l28.47,30.96,17.56,9,.98,31.71c.22,7.22,9.17,10.44,13.95,5.02l15.32,6.03-7.78-65.2"/><path class="cls-9" d="M372.95,305.15s-18.7-12.89-30.55-8.17c-1.44,.57-1.99,2.34-1.11,3.62h0c.3,.44,.74,.77,1.25,.94l25.51,8.26"/><path class="cls-9" d="M374.12,314.39s-17.03-15.02-29.36-11.74c-1.5,.4-2.25,2.09-1.53,3.46h0c.25,.48,.65,.86,1.13,1.08l27.68,12.77"/><path class="cls-9" d="M375.44,322.91s-15.76-16.35-28.32-14.08c-1.53,.28-2.41,1.9-1.81,3.33h0c.21,.49,.57,.91,1.04,1.17l26.56,14.97"/><path class="cls-9" d="M386.39,305.85c-.63,5.84-1.18,11.88,10.53,15.27"/><path class="cls-9" d="M390.47,337.3l.54,.33c2.84,1.72,4.58,4.79,4.58,8.11h0"/></g></g></svg>