<?xml version="1.0" encoding="UTF-8"?><svg xmlns="http://www.w3.org/2000/svg" viewBox="0 0 1000 562.5"><defs><style>.cls-1,.cls-2,.cls-3,.cls-4,.cls-5,.cls-6,.cls-7,.cls-8,.cls-9,.cls-10,.cls-11,.cls-12,.cls-13,.cls-14,.cls-15,.cls-16{stroke:#425066;}.cls-1,.cls-2,.cls-3,.cls-4,.cls-5,.cls-6,.cls-7,.cls-9,.cls-10,.cls-11,.cls-12,.cls-13,.cls-14,.cls-15,.cls-17{stroke-linecap:round;stroke-linejoin:round;}.cls-1,.cls-18,.cls-11,.cls-19{fill:#425066;}.cls-2,.cls-10{fill:#6f7071;}.cls-3,.cls-13,.cls-20{fill:#9fa1a2;}.cls-4,.cls-21,.cls-15,.cls-22{fill:#fff;}.cls-5{fill:#e6e6e6;}.cls-6{fill:#697587;}.cls-7,.cls-8,.cls-23,.cls-24,.cls-25,.cls-9,.cls-26,.cls-16,.cls-17{fill:none;}.cls-8,.cls-23,.cls-24,.cls-25,.cls-9,.cls-10,.cls-11,.cls-12,.cls-13,.cls-14,.cls-15,.cls-19,.cls-22,.cls-27{fill-rule:evenodd;}.cls-8,.cls-23,.cls-24,.cls-25,.cls-26{stroke-width:3.19px;}.cls-23{stroke:#e6e6e6;}.cls-24,.cls-17{stroke:#ff6f00;}.cls-25,.cls-26{stroke:#e5e6e8;}.cls-28{opacity:.05;}.cls-29,.cls-14,.cls-27{fill:#e5e6e8;}.cls-30{fill:#ff6f00;}.cls-31{fill:#b8baba;}.cls-32,.cls-12{fill:#ced0d1;}.cls-33{fill:#3a485f;}.cls-20{stroke:#9fa1a2;stroke-miterlimit:10;stroke-width:.25px;}.cls-16{stroke-width:3.2px;}.cls-34{fill:rgba(66,80,102,.05);}.cls-17{stroke-width:18.53px;}</style></defs><g id="Footer"><g><path class="cls-25" d="M675.04,103.07l-91.55,52.86c-7.13,4.12-7.09,10.81,.08,14.95l136.76,78.96"/><path class="cls-16" d="M747.75,306.8l199.66-115.27c7.13-4.12,7.09-10.81-.08-14.95l-160.01-92.38c-7.18-4.14-7.21-10.84-.08-14.95l40.24-23.22"/><path class="cls-23" d="M402.98,50.85L125.41,211.11c-7.13,4.12-7.09,10.81,.08,14.95l116.57,67.3c7.17,4.14,7.21,10.84,.08,14.95l-126.77,73.19"/><path class="cls-23" d="M41.88,166.22l57.18-33.01c14.26-8.23,37.45-8.19,51.8,.09l139.61,80.6"/><path class="cls-24" d="M420.81,161.94l-91.55,52.86c-7.13,4.12-7.09,10.81,.08,14.95l136.76,78.96"/><path class="cls-24" d="M663.37,158.23l-90.12,52.03c-7.13,4.12-7.09,10.81,.08,14.95l69.05,39.87c7.17,4.14,7.21,10.84,.08,14.95l-97.27,56.16"/><path class="cls-8" d="M499.67,415.6l211.61,122.17c14.35,8.28,37.54,8.33,51.8,.09l84.3-48.67c14.26-8.23,37.45-8.19,51.8,.09l37.38,21.58"/><path class="cls-27" d="M35.49,166.07c0-3.53,2.86-6.39,6.39-6.39s6.39,2.86,6.39,6.39-2.86,6.39-6.39,6.39-6.39-2.86-6.39-6.39"/><path class="cls-27" d="M284.08,213.91c0-3.53,2.86-6.39,6.39-6.39,3.53,0,6.39,2.86,6.39,6.39,0,3.53-2.86,6.39-6.39,6.39-3.53,0-6.39-2.86-6.39-6.39"/><circle class="cls-30" cx="420.78" cy="161.94" r="6.39" transform="translate(8.74 344.97) rotate(-45)"/><g><circle class="cls-21" cx="675.03" cy="103.07" r="4.79"/><path class="cls-29" d="M675.03,99.88c1.76,0,3.19,1.43,3.19,3.19s-1.43,3.19-3.19,3.19-3.19-1.43-3.19-3.19,1.43-3.19,3.19-3.19m0-3.19c-3.53,0-6.39,2.86-6.39,6.39s2.86,6.39,6.39,6.39,6.39-2.86,6.39-6.39-2.86-6.39-6.39-6.39h0Z"/></g><g><path class="cls-22" d="M402.98,55.64c-2.64,0-4.79-2.15-4.79-4.79s2.15-4.79,4.79-4.79,4.79,2.15,4.79,4.79-2.15,4.79-4.79,4.79Z"/><path class="cls-29" d="M402.98,47.66c1.76,0,3.19,1.43,3.19,3.19s-1.43,3.19-3.19,3.19-3.19-1.43-3.19-3.19,1.43-3.19,3.19-3.19m0-3.19c-3.53,0-6.39,2.86-6.39,6.39s2.86,6.39,6.39,6.39,6.39-2.86,6.39-6.39-2.86-6.39-6.39-6.39h0Z"/></g><circle class="cls-29" cx="720.33" cy="249.84" r="6.39" transform="translate(34.32 582.53) rotate(-45)"/><circle class="cls-30" cx="663.37" cy="158.23" r="6.39" transform="translate(82.41 515.42) rotate(-45)"/><circle class="cls-18" cx="936.55" cy="510.89" r="6.39" transform="translate(-86.94 811.88) rotate(-45)"/><g><path class="cls-21" d="M747.75,311.59c-2.64,0-4.79-2.15-4.79-4.79s2.15-4.79,4.79-4.79,4.79,2.15,4.79,4.79-2.15,4.79-4.79,4.79Z"/><path class="cls-18" d="M747.75,303.61c1.76,0,3.19,1.43,3.19,3.19,0,.85-.33,1.65-.94,2.26-.6,.6-1.41,.94-2.26,.94-1.76,0-3.19-1.43-3.19-3.19s1.43-3.19,3.19-3.19m0-3.19c-3.53,0-6.39,2.86-6.39,6.39s2.86,6.39,6.39,6.39,6.39-2.86,6.39-6.39c0-3.53-2.86-6.39-6.39-6.39h0Z"/></g><path class="cls-19" d="M833.86,46.01c0-3.53-2.86-6.39-6.39-6.39-3.53,0-6.39,2.86-6.39,6.39,0,3.53,2.86,6.39,6.39,6.39,3.53,0,6.39-2.86,6.39-6.39"/><path class="cls-26" d="M791.43,377.81l66.73,38.52c7.18,4.14,7.21,10.84,.08,14.95l-66.81,38.56"/><path class="cls-26" d="M791.43,439.17l66.8-38.57c7.13-4.12,7.09-10.81-.08-14.95l-66.72-38.52"/><path class="cls-22" d="M785.04,347.13c0-3.53,2.86-6.39,6.39-6.39s6.39,2.86,6.39,6.39c0,3.53-2.86,6.39-6.39,6.39s-6.39-2.86-6.39-6.39"/><path class="cls-22" d="M785.04,439.17c0-3.53,2.86-6.39,6.39-6.39,3.53,0,6.39,2.86,6.39,6.39s-2.86,6.39-6.39,6.39c-3.53,0-6.39-2.86-6.39-6.39"/><g><path class="cls-22" d="M791.43,351.92c-2.64,0-4.79-2.15-4.79-4.79s2.15-4.79,4.79-4.79,4.79,2.15,4.79,4.79-2.15,4.79-4.79,4.79Z"/><path class="cls-29" d="M791.43,343.94c1.76,0,3.19,1.43,3.19,3.19s-1.43,3.19-3.19,3.19-3.19-1.43-3.19-3.19,1.43-3.19,3.19-3.19m0-3.19c-3.53,0-6.39,2.86-6.39,6.39s2.86,6.39,6.39,6.39,6.39-2.86,6.39-6.39-2.86-6.39-6.39-6.39h0Z"/></g><g><path class="cls-22" d="M115.37,386.24c-2.64,0-4.79-2.15-4.79-4.79s2.15-4.79,4.79-4.79,4.79,2.15,4.79,4.79-2.15,4.79-4.79,4.79Z"/><path class="cls-29" d="M115.37,378.25c1.76,0,3.19,1.43,3.19,3.19s-1.43,3.19-3.19,3.19-3.19-1.43-3.19-3.19c0-.85,.33-1.65,.94-2.26,.6-.6,1.4-.94,2.26-.94h0m0-3.19c-3.53,0-6.39,2.86-6.39,6.39s2.86,6.39,6.39,6.39,6.39-2.86,6.39-6.39-2.86-6.39-6.39-6.39h0Z"/></g><g><circle class="cls-21" cx="791.43" cy="439.17" r="4.79"/><path class="cls-29" d="M791.43,435.98c1.76,0,3.19,1.43,3.19,3.19s-1.43,3.19-3.19,3.19-3.19-1.43-3.19-3.19,1.43-3.19,3.19-3.19m0-3.19c-3.53,0-6.39,2.86-6.39,6.39s2.86,6.39,6.39,6.39,6.39-2.86,6.39-6.39-2.86-6.39-6.39-6.39h0Z"/></g><circle class="cls-29" cx="791.43" cy="377.81" r="6.39" transform="translate(-35.35 670.28) rotate(-45)"/><circle class="cls-29" cx="791.43" cy="469.85" r="6.39" transform="translate(-100.43 697.24) rotate(-45)"/><path class="cls-8" d="M566.92,376.77l87.8,50.69c7.17,4.14,7.21,10.84,.08,14.95l-41.44,23.92c-7.13,4.12-7.09,10.81,.08,14.95l53.79,31.05"/></g><rect class="cls-17" x="-1260.84" y="-88.69" width="3616.31" height="739.87"/></g><g id="Main"><ellipse class="cls-34" cx="302.15" cy="446.58" rx="19.88" ry="34.43" transform="translate(-146.06 746.3) rotate(-89.69)"/><g><path class="cls-18" d="M369.18,243.76s1-1.13,1-1.33c0-.1-2-.21-2-.33,0-.11,2-.22,2-.33s-2-.23-2-.34c0-.12,2-.24,2-.34,0-.2-1,.67-1,.67-1.44,0-2.5-2.39-4.07-3.3-1.3-.75-3.79-.15-5.03-1.32-1.15-1.08-.77-3.64-1.76-4.93s-3.57-1.59-4.32-2.97c-.81-1.5,.39-3.76,0-5.21-.48-1.75-2.55-3.37-2.21-4.76,.54-2.21,2.91-3.74,3.26-5.5,.45-2.29-1.19-4.61-.89-6.34,.39-2.26,2.67-3.72,3.15-5.52s-.66-4.37,.42-6.35c.83-1.52,3.58-2.09,4.99-4,1.05-1.42,.71-4.22,2.19-6,1.14-1.37,3.73-.89,5.23-1.65s2.65-3.13,4.38-3.31,3.34,1.89,5.04,2.24,4.01-.9,5.51-.07,1.63,3.45,2.76,4.75,3.7,1.8,4.25,3.48c.9,2.73-.53,5.5-.34,7.6,.27,2.83,1.92,5.39,1.25,7.51-.74,2.36-3.74,3.58-5.12,5.71-1.26,1.93-.97,4.96-2.33,7.24-1.16,1.94-4.07,3.22-5.03,5.75-.79,2.08,.44,4.96-.07,7.64-.16,.87-2.32,1.2-2.62,2.03s1.14,2.48,.7,3.24-2.58,.36-3.15,1.01,.08,2.75-.63,3.25-2.39-.86-3.24-.59-1.38,2.36-2.3,2.36Z"/><path class="cls-7" d="M369.18,243.76s1-1.13,1-1.33c0-.1-2-.21-2-.33,0-.11,2-.22,2-.33s-2-.23-2-.34c0-.12,2-.24,2-.34,0-.2-1,.67-1,.67-1.44,0-2.5-2.39-4.07-3.3-1.3-.75-3.79-.15-5.03-1.32-1.15-1.08-.77-3.64-1.76-4.93s-3.57-1.59-4.32-2.97c-.81-1.5,.39-3.76,0-5.21-.48-1.75-2.55-3.37-2.21-4.76,.54-2.21,2.91-3.74,3.26-5.5,.45-2.29-1.19-4.61-.89-6.34,.39-2.26,2.67-3.72,3.15-5.52s-.66-4.37,.42-6.35c.83-1.52,3.58-2.09,4.99-4,1.05-1.42,.71-4.22,2.19-6,1.14-1.37,3.73-.89,5.23-1.65s2.65-3.13,4.38-3.31,3.34,1.89,5.04,2.24,4.01-.9,5.51-.07,1.63,3.45,2.76,4.75,3.7,1.8,4.25,3.48c.9,2.73-.53,5.5-.34,7.6,.27,2.83,1.92,5.39,1.25,7.51-.74,2.36-3.74,3.58-5.12,5.71-1.26,1.93-.97,4.96-2.33,7.24-1.16,1.94-4.07,3.22-5.03,5.75-.79,2.08,.44,4.96-.07,7.64-.16,.87-2.32,1.2-2.62,2.03s1.14,2.48,.7,3.24-2.58,.36-3.15,1.01,.08,2.75-.63,3.25-2.39-.86-3.24-.59-1.38,2.36-2.3,2.36Z"/></g><g><polygon class="cls-31" points="245.61 421.96 265.76 433.6 265.76 410.33 245.61 398.69 245.61 421.96"/><polygon class="cls-32" points="285.91 421.96 265.76 433.6 265.76 410.33 285.91 398.69 285.91 421.96"/><polygon class="cls-29" points="245.61 398.69 265.76 410.33 285.91 398.69 265.76 387.06 245.61 398.69"/></g><g><polygon class="cls-31" points="138.1 514.84 158.26 526.47 158.26 503.2 138.1 491.57 138.1 514.84"/><polygon class="cls-32" points="178.41 514.84 158.26 526.47 158.26 503.2 178.41 491.57 178.41 514.84"/><polygon class="cls-29" points="138.1 491.57 158.26 503.2 178.41 491.57 158.26 479.93 138.1 491.57"/></g><ellipse class="cls-34" cx="383.64" cy="378.58" rx="19.88" ry="34.43" transform="translate(2.98 760.16) rotate(-89.69)"/><g><path class="cls-4" d="M393.28,218.85c-2.78-3.25-11.39-7.86-14.55-4.98h0c-3.24,2.95-2.22,9.09,.94,12.14l13.36,12.9,10.22-8.42-9.96-11.63Z"/><path class="cls-6" d="M367.92,366.13v11.61c0,.31,.28,1.49,.64,2.84,.76,2.88,2.44,5.43,4.76,7.29h0c1.96,3.26,6.98,1.7,6.74-2.1l-.22-3.57c-.1-1.53-.52-3.02-1.25-4.38h0c-.83-1.55-1.27-3.29-1.27-5.05v-9.77l-9.4,3.14Z"/><path class="cls-6" d="M388.69,356.32v10.96l5.93,2.9c.72,.35,1.31,.9,1.72,1.59h0c.64,1.09,1.75,1.82,3,1.97l7.54,.93c1.28,.16,2.41-.84,2.41-2.13h0c0-.55-.21-1.07-.58-1.47l-9.72-10.37-1.47-6.5-8.83,2.13Z"/><path class="cls-5" d="M396.88,255.69l3.49,104.01s-6.58,5.96-15.83,1.85l-5.91-105.86h18.24Z"/><path class="cls-5" d="M390.92,257.12h-23.57s-5.78,14.11-2.74,27.59l1.84,38.61-2.73,11.31,2.52,35.98s8.63,4.72,13.77-5.55l8.67-85.85"/><path class="cls-2" d="M360.29,221.53l.87-1.26c.71-1.02,1.71-1.8,2.87-2.24l3.01-1.13c1.16-.44,2.15-1.21,2.86-2.23l1.14-1.64c.62-.89,1.47-1.6,2.46-2.06l4.37-2.01,7.63,4.38c2.18,1.25,3.98,3.07,5.22,5.25l2.51,4.45c2.31,4.09,3.08,8.88,2.15,13.49l-.27,1.32c-.51,2.57-.51,5.21,.02,7.77l2.45,11.99s-5.38,8.28-31.4-1.47l1.04-3.17-6.94-31.44Z"/><g><polygon class="cls-31" points="393.32 256.88 413.47 268.52 413.47 245.25 393.32 233.61 393.32 256.88"/><polygon class="cls-32" points="433.63 256.88 413.47 268.52 413.47 245.25 433.63 233.61 433.63 256.88"/><polygon class="cls-29" points="393.32 233.61 413.47 245.25 433.63 233.61 413.47 221.98 393.32 233.61"/></g><path class="cls-7" d="M368.7,219.5s8.09,5.09,5.67,19.63"/><path class="cls-7" d="M372.45,277.92c5.14-3.11,5.17-5.64,5.42-10"/><path class="cls-3" d="M392.46,250.36l.85-2.13c.24-.61,.77-1.05,1.41-1.17l5.63-1.1c.7-.14,1.28,.62,.91,1.22-.5,.82-1.71,1.8-4.58,2.43l-4.22,.74Z"/><path class="cls-20" d="M393.27,259.03l3.1-.29,8.6-2.72c.61-.19,1.03-.76,1.03-1.4v-2.5l1.88-1.25v-.8c0-.85-.66-1.55-1.51-1.61-3.27-.21-10.97-.42-13.9,1.9l-2.46,5.86,3.27,2.81Z"/><path class="cls-3" d="M392.46,250.36l-2.46,5.86,3.27,2.81,.38-.04c1.81-.17,3.59-.53,5.32-1.08l5.99-1.9c.61-.19,1.03-.76,1.03-1.4v-2.5l1.88-1.25v-.8c0-.85-.65-1.55-1.5-1.61-2.36-.15-7.03-.3-10.55,.5"/><path class="cls-3" d="M399.67,252.95c1.89-.28,3.33-.29,5.21-.61,.74-.13,3.43-1.06,3.43,.41h0c0,.74-.51,.99-1.24,1.15-1.77,.39-5.1,1.03-7.86,1.03"/><path class="cls-4" d="M366.18,324.5s2.82-4.69,3.15-8.59"/><path class="cls-4" d="M369.33,321.92s2.09-2.34,5.83-2.56"/><path class="cls-4" d="M358.37,230.04l5.96,29.82c.5,2.51,2.77,4.27,5.32,4.14l15.34-.8c1.09-.06,2.09-.63,2.7-1.54l1.65-2.48-.98-8.83-2.47-2.01c-.85-.69-1.97-.94-3.03-.67l-7.42,1.87-1.82-17.64c-.44-4.26-4.89-12.94-9.13-12.38h0c-4.35,.58-7,6.21-6.14,10.51Z"/><path class="cls-4" d="M378.64,260.89s7.44,.53,9.62-2.7"/><path class="cls-4" d="M388.36,250.36h4.1s-.99,5.72,.81,8.67l-3.92,.16s-2.13-1.14-.98-8.83Z"/><polygon class="cls-3" points="384.55 226 373.63 215.04 371.2 202.12 381.01 202.12 383.16 216.61 384.55 226"/><path class="cls-1" d="M383.16,216.61c-.12-.06-.23-.13-.34-.21l-6.44-4.87c-.57-.43-.93-1.06-1.03-1.76h0l5.66-7.65,2.15,14.49Z"/><path class="cls-3" d="M372.25,202.3c-1.58-3.8,.22-8.17,4.02-9.75l7.79-3.24c1.69-.71,3.63,.16,4.21,1.9,1.62,4.85,3.8,14.37-.77,22-.66,1.1-2.05,1.52-3.23,1.04l-7.48-3.04c-.65-.27-1.17-.78-1.44-1.43"/><path class="cls-18" d="M365.33,203.41c1.79-.5,2.18,1.08,4,.71s1.53-1.84,3.36-2.21,2.23,1.24,4.02,.7c1.01-.64,.11-1.64-.24-2.26-.37-.66,.28-1.9,.08-2.47-.18-.53-.84-1.48,.53-1.89,0,0,2.04,.11,4.3-.99,1.23-.6,2.23-2.55,3.78-2.8,1.42-.23,3.13,1.25,4.64,1.67,.31-.04-.78-1.17-.73-1.47s1.52-.08,1.57-.38-1.43-.9-1.25-1.16c.62-.41,1.36-.78,1.01-.9-.24-.09-1.3,1.11-1.6,.88-.23-.18,.75-1.2,.66-1.58-.04-.18-1.5,.16-1.54-.02s1.42-.51,1.38-.69-1.02,.55-1.17,.46c-.86-.48-.28-1.71-1.19-2.06s-1.46,1.03-2.38,.67-.63-2.23-1.62-2.16c-1.78,.13-1.41,2.01-3.1,2.57s-2.17-.86-3.86-.31-1.25,1.52-2.77,2.46c-.83,.51-1.55-.23-2.08,.59-.53,.82,.73,1.63,.2,2.45s-2.18,.11-2.41,1.05c-.32,1.33,1.47,1.55,1.47,2.92s-1.49,1.37-1.49,2.75c0,1.37,1.75,1.54,1.48,2.89-.14,.74-1.65-.5-2.4-.15-.44,.21-.34,1.8-.79,1.97-.75,.29-1.84-.97-1.85-1.25Z"/><path class="cls-3" d="M374.94,206.42c-1.39,.38-2.94-.88-3.47-2.81s.16-3.81,1.55-4.19,2.94,.88,3.47,2.81"/><path class="cls-3" d="M387.64,201.27l.92,4.85c.14,.74-.43,1.43-1.19,1.43h-.98"/><path class="cls-3" d="M399.67,251.15l7.74-1.02c.82-.13,1.36-.05,1.36,.65h0c0,.74-.51,.99-1.24,1.15-1.77,.39-5.1,1.03-7.86,1.03"/></g><g><polygon class="cls-31" points="275.83 497.49 295.99 509.12 295.99 485.85 275.83 474.22 275.83 497.49"/><polygon class="cls-32" points="316.14 497.49 295.99 509.12 295.99 485.85 316.14 474.22 316.14 497.49"/><polygon class="cls-29" points="275.83 474.22 295.99 485.85 316.14 474.22 295.99 462.58 275.83 474.22"/></g><g class="cls-28"><polygon class="cls-33" points="403.79 509.12 383.64 520.75 363.49 509.12 383.64 497.49 403.79 509.12"/></g><g class="cls-28"><polygon class="cls-33" points="378.64 523.61 358.48 535.25 338.33 523.61 358.49 511.98 378.64 523.61"/></g><g><g><g><polygon class="cls-31" points="473.21 332.25 493.36 343.88 493.36 320.61 473.21 308.98 473.21 332.25"/><polygon class="cls-32" points="513.51 332.25 493.36 343.88 493.36 320.61 513.51 308.98 513.51 332.25"/><polygon class="cls-29" points="473.21 308.98 493.36 320.61 513.51 308.98 493.36 297.34 473.21 308.98"/></g><g><polygon class="cls-31" points="473.21 303.26 493.36 314.9 493.36 291.63 473.21 279.99 473.21 303.26"/><polygon class="cls-32" points="513.51 303.26 493.36 314.9 493.36 291.63 513.51 279.99 513.51 303.26"/><polygon class="cls-29" points="473.21 279.99 493.36 291.63 513.51 279.99 493.36 268.36 473.21 279.99"/></g><g><polygon class="cls-31" points="473.21 274.28 493.36 285.91 493.36 262.64 473.21 251.01 473.21 274.28"/><polygon class="cls-32" points="513.51 274.28 493.36 285.91 493.36 262.64 513.51 251.01 513.51 274.28"/><polygon class="cls-29" points="473.21 251.01 493.36 262.64 513.51 251.01 493.36 239.37 473.21 251.01"/></g><g><polygon class="cls-31" points="473.21 245.29 493.36 256.92 493.36 233.65 473.21 222.02 473.21 245.29"/><polygon class="cls-32" points="513.51 245.29 493.36 256.92 493.36 233.65 513.51 222.02 513.51 245.29"/><polygon class="cls-29" points="473.21 222.02 493.36 233.65 513.51 222.02 493.36 210.39 473.21 222.02"/></g></g><g><g><polygon class="cls-31" points="448.11 346.74 468.26 358.37 468.26 335.1 448.11 323.47 448.11 346.74"/><polygon class="cls-32" points="488.41 346.74 468.26 358.37 468.26 335.1 488.41 323.47 488.41 346.74"/><polygon class="cls-29" points="448.11 323.47 468.26 335.1 488.41 323.47 468.26 311.84 448.11 323.47"/></g><g><polygon class="cls-31" points="448.11 317.75 468.26 329.39 468.26 306.12 448.11 294.48 448.11 317.75"/><polygon class="cls-32" points="488.41 317.75 468.26 329.39 468.26 306.12 488.41 294.48 488.41 317.75"/><polygon class="cls-29" points="448.11 294.48 468.26 306.12 488.41 294.48 468.26 282.85 448.11 294.48"/></g><g><polygon class="cls-31" points="448.11 288.77 468.26 300.4 468.26 277.13 448.11 265.5 448.11 288.77"/><polygon class="cls-32" points="488.41 288.77 468.26 300.4 468.26 277.13 488.41 265.5 488.41 288.77"/><polygon class="cls-29" points="448.11 265.5 468.26 277.13 488.41 265.5 468.26 253.86 448.11 265.5"/></g><g><polygon class="cls-31" points="448.11 259.78 468.26 271.42 468.26 248.15 448.11 236.51 448.11 259.78"/><polygon class="cls-32" points="488.41 259.78 468.26 271.42 468.26 248.15 488.41 236.51 488.41 259.78"/><polygon class="cls-29" points="448.11 236.51 468.26 248.15 488.41 236.51 468.26 224.88 448.11 236.51"/></g></g><g><g><polygon class="cls-31" points="423 361.23 443.16 372.87 443.16 349.6 423 337.96 423 361.23"/><polygon class="cls-32" points="463.31 361.23 443.16 372.87 443.16 349.6 463.31 337.96 463.31 361.23"/><polygon class="cls-29" points="423 337.96 443.16 349.6 463.31 337.96 443.16 326.33 423 337.96"/></g><g><polygon class="cls-31" points="423 332.25 443.16 343.88 443.16 320.61 423 308.98 423 332.25"/><polygon class="cls-32" points="463.31 332.25 443.16 343.88 443.16 320.61 463.31 308.98 463.31 332.25"/><polygon class="cls-29" points="423 308.98 443.16 320.61 463.31 308.98 443.16 297.34 423 308.98"/></g><g><polygon class="cls-31" points="423 303.26 443.16 314.9 443.16 291.63 423 279.99 423 303.26"/><polygon class="cls-32" points="463.31 303.26 443.16 314.9 443.16 291.63 463.31 279.99 463.31 303.26"/><polygon class="cls-29" points="423 279.99 443.16 291.63 463.31 279.99 443.16 268.36 423 279.99"/></g><g><polygon class="cls-31" points="423 274.28 443.16 285.91 443.16 262.64 423 251.01 423 274.28"/><polygon class="cls-32" points="463.31 274.28 443.16 285.91 443.16 262.64 463.31 251.01 463.31 274.28"/><polygon class="cls-29" points="423 251.01 443.16 262.64 463.31 251.01 443.16 239.37 423 251.01"/></g></g><g><g><polygon class="cls-31" points="397.9 375.73 418.05 387.36 418.05 364.09 397.9 352.46 397.9 375.73"/><polygon class="cls-32" points="438.21 375.73 418.05 387.36 418.05 364.09 438.21 352.46 438.21 375.73"/><polygon class="cls-29" points="397.9 352.46 418.05 364.09 438.21 352.46 418.05 340.82 397.9 352.46"/></g><g><polygon class="cls-31" points="397.9 346.74 418.05 358.37 418.05 335.1 397.9 323.47 397.9 346.74"/><polygon class="cls-32" points="438.21 346.74 418.05 358.37 418.05 335.1 438.21 323.47 438.21 346.74"/><polygon class="cls-29" points="397.9 323.47 418.05 335.1 438.21 323.47 418.05 311.84 397.9 323.47"/></g><g><polygon class="cls-31" points="397.9 317.75 418.05 329.39 418.05 306.12 397.9 294.48 397.9 317.75"/><polygon class="cls-32" points="438.21 317.75 418.05 329.39 418.05 306.12 438.21 294.48 438.21 317.75"/><polygon class="cls-29" points="397.9 294.48 418.05 306.12 438.21 294.48 418.05 282.85 397.9 294.48"/></g></g><g><g><polygon class="cls-31" points="498.31 346.74 518.46 358.37 518.46 335.1 498.31 323.47 498.31 346.74"/><polygon class="cls-32" points="538.62 346.74 518.46 358.37 518.46 335.1 538.62 323.47 538.62 346.74"/><polygon class="cls-29" points="498.31 323.47 518.46 335.1 538.62 323.47 518.46 311.84 498.31 323.47"/></g><g><polygon class="cls-31" points="498.31 317.75 518.46 329.39 518.46 306.12 498.31 294.48 498.31 317.75"/><polygon class="cls-32" points="538.62 317.75 518.46 329.39 518.46 306.12 538.62 294.48 538.62 317.75"/><polygon class="cls-29" points="498.31 294.48 518.46 306.12 538.62 294.48 518.46 282.85 498.31 294.48"/></g><g><polygon class="cls-31" points="498.31 288.77 518.46 300.4 518.46 277.13 498.31 265.5 498.31 288.77"/><polygon class="cls-32" points="538.62 288.77 518.46 300.4 518.46 277.13 538.62 265.5 538.62 288.77"/><polygon class="cls-29" points="498.31 265.5 518.46 277.13 538.62 265.5 518.46 253.86 498.31 265.5"/></g><g><polygon class="cls-31" points="498.31 259.78 518.46 271.42 518.46 248.15 498.31 236.51 498.31 259.78"/><polygon class="cls-32" points="538.62 259.78 518.46 271.42 518.46 248.15 538.62 236.51 538.62 259.78"/><polygon class="cls-29" points="498.31 236.51 518.46 248.15 538.62 236.51 518.46 224.88 498.31 236.51"/></g></g><g><g><polygon class="cls-31" points="473.21 361.23 493.36 372.87 493.36 349.6 473.21 337.96 473.21 361.23"/><polygon class="cls-32" points="513.51 361.23 493.36 372.87 493.36 349.6 513.51 337.96 513.51 361.23"/><polygon class="cls-29" points="473.21 337.96 493.36 349.6 513.51 337.96 493.36 326.33 473.21 337.96"/></g><g><polygon class="cls-31" points="473.21 332.25 493.36 343.88 493.36 320.61 473.21 308.98 473.21 332.25"/><polygon class="cls-32" points="513.51 332.25 493.36 343.88 493.36 320.61 513.51 308.98 513.51 332.25"/><polygon class="cls-29" points="473.21 308.98 493.36 320.61 513.51 308.98 493.36 297.34 473.21 308.98"/></g><g><polygon class="cls-31" points="473.21 303.26 493.36 314.9 493.36 291.63 473.21 279.99 473.21 303.26"/><polygon class="cls-32" points="513.51 303.26 493.36 314.9 493.36 291.63 513.51 279.99 513.51 303.26"/><polygon class="cls-29" points="473.21 279.99 493.36 291.63 513.51 279.99 493.36 268.36 473.21 279.99"/></g><g><polygon class="cls-31" points="473.21 274.28 493.36 285.91 493.36 262.64 473.21 251.01 473.21 274.28"/><polygon class="cls-32" points="513.51 274.28 493.36 285.91 493.36 262.64 513.51 251.01 513.51 274.28"/><polygon class="cls-29" points="473.21 251.01 493.36 262.64 513.51 251.01 493.36 239.37 473.21 251.01"/></g></g><g><g><polygon class="cls-31" points="448.11 375.73 468.26 387.36 468.26 364.09 448.11 352.46 448.11 375.73"/><polygon class="cls-32" points="488.41 375.73 468.26 387.36 468.26 364.09 488.41 352.46 488.41 375.73"/><polygon class="cls-29" points="448.11 352.46 468.26 364.09 488.41 352.46 468.26 340.82 448.11 352.46"/></g><g><polygon class="cls-31" points="448.11 346.74 468.26 358.37 468.26 335.1 448.11 323.47 448.11 346.74"/><polygon class="cls-32" points="488.41 346.74 468.26 358.37 468.26 335.1 488.41 323.47 488.41 346.74"/><polygon class="cls-29" points="448.11 323.47 468.26 335.1 488.41 323.47 468.26 311.84 448.11 323.47"/></g><g><polygon class="cls-31" points="448.11 317.75 468.26 329.39 468.26 306.12 448.11 294.48 448.11 317.75"/><polygon class="cls-32" points="488.41 317.75 468.26 329.39 468.26 306.12 488.41 294.48 488.41 317.75"/><polygon class="cls-29" points="448.11 294.48 468.26 306.12 488.41 294.48 468.26 282.85 448.11 294.48"/></g><g><polygon class="cls-31" points="448.11 288.77 468.26 300.4 468.26 277.13 448.11 265.5 448.11 288.77"/><polygon class="cls-32" points="488.41 288.77 468.26 300.4 468.26 277.13 488.41 265.5 488.41 288.77"/><polygon class="cls-29" points="448.11 265.5 468.26 277.13 488.41 265.5 468.26 253.86 448.11 265.5"/></g></g><g><g><polygon class="cls-31" points="423 390.22 443.16 401.85 443.16 378.58 423 366.95 423 390.22"/><polygon class="cls-32" points="463.31 390.22 443.16 401.85 443.16 378.58 463.31 366.95 463.31 390.22"/><polygon class="cls-29" points="423 366.95 443.16 378.58 463.31 366.95 443.16 355.31 423 366.95"/></g><g><polygon class="cls-31" points="423 361.23 443.16 372.87 443.16 349.6 423 337.96 423 361.23"/><polygon class="cls-32" points="463.31 361.23 443.16 372.87 443.16 349.6 463.31 337.96 463.31 361.23"/><polygon class="cls-29" points="423 337.96 443.16 349.6 463.31 337.96 443.16 326.33 423 337.96"/></g><g><polygon class="cls-31" points="423 332.25 443.16 343.88 443.16 320.61 423 308.98 423 332.25"/><polygon class="cls-32" points="463.31 332.25 443.16 343.88 443.16 320.61 463.31 308.98 463.31 332.25"/><polygon class="cls-29" points="423 308.98 443.16 320.61 463.31 308.98 443.16 297.34 423 308.98"/></g></g><g><g><polygon class="cls-31" points="523.41 361.23 543.57 372.87 543.57 349.6 523.41 337.96 523.41 361.23"/><polygon class="cls-32" points="563.72 361.23 543.57 372.87 543.57 349.6 563.72 337.96 563.72 361.23"/><polygon class="cls-29" points="523.41 337.96 543.57 349.6 563.72 337.96 543.57 326.33 523.41 337.96"/></g><g><polygon class="cls-31" points="523.41 332.25 543.57 343.88 543.57 320.61 523.41 308.98 523.41 332.25"/><polygon class="cls-32" points="563.72 332.25 543.57 343.88 543.57 320.61 563.72 308.98 563.72 332.25"/><polygon class="cls-29" points="523.41 308.98 543.57 320.61 563.72 308.98 543.57 297.34 523.41 308.98"/></g><g><polygon class="cls-31" points="523.41 303.26 543.57 314.9 543.57 291.63 523.41 279.99 523.41 303.26"/><polygon class="cls-32" points="563.72 303.26 543.57 314.9 543.57 291.63 563.72 279.99 563.72 303.26"/><polygon class="cls-29" points="523.41 279.99 543.57 291.63 563.72 279.99 543.57 268.36 523.41 279.99"/></g><g><polygon class="cls-31" points="523.41 274.28 543.57 285.91 543.57 262.64 523.41 251.01 523.41 274.28"/><polygon class="cls-32" points="563.72 274.28 543.57 285.91 543.57 262.64 563.72 251.01 563.72 274.28"/><polygon class="cls-29" points="523.41 251.01 543.57 262.64 563.72 251.01 543.57 239.37 523.41 251.01"/></g></g><g><g><polygon class="cls-31" points="498.31 375.73 518.46 387.36 518.46 364.09 498.31 352.46 498.31 375.73"/><polygon class="cls-32" points="538.62 375.73 518.46 387.36 518.46 364.09 538.62 352.46 538.62 375.73"/><polygon class="cls-29" points="498.31 352.46 518.46 364.09 538.62 352.46 518.46 340.82 498.31 352.46"/></g><g><polygon class="cls-31" points="498.31 346.74 518.46 358.37 518.46 335.1 498.31 323.47 498.31 346.74"/><polygon class="cls-32" points="538.62 346.74 518.46 358.37 518.46 335.1 538.62 323.47 538.62 346.74"/><polygon class="cls-29" points="498.31 323.47 518.46 335.1 538.62 323.47 518.46 311.84 498.31 323.47"/></g><g><polygon class="cls-31" points="498.31 317.75 518.46 329.39 518.46 306.12 498.31 294.48 498.31 317.75"/><polygon class="cls-32" points="538.62 317.75 518.46 329.39 518.46 306.12 538.62 294.48 538.62 317.75"/><polygon class="cls-29" points="498.31 294.48 518.46 306.12 538.62 294.48 518.46 282.85 498.31 294.48"/></g><g><polygon class="cls-31" points="498.31 288.77 518.46 300.4 518.46 277.13 498.31 265.5 498.31 288.77"/><polygon class="cls-32" points="538.62 288.77 518.46 300.4 518.46 277.13 538.62 265.5 538.62 288.77"/><polygon class="cls-29" points="498.31 265.5 518.46 277.13 538.62 265.5 518.46 253.86 498.31 265.5"/></g></g><g><g><polygon class="cls-31" points="473.21 390.22 493.36 401.85 493.36 378.58 473.21 366.95 473.21 390.22"/><polygon class="cls-32" points="513.51 390.22 493.36 401.85 493.36 378.58 513.51 366.95 513.51 390.22"/><polygon class="cls-29" points="473.21 366.95 493.36 378.58 513.51 366.95 493.36 355.31 473.21 366.95"/></g><g><polygon class="cls-31" points="473.21 361.23 493.36 372.87 493.36 349.6 473.21 337.96 473.21 361.23"/><polygon class="cls-32" points="513.51 361.23 493.36 372.87 493.36 349.6 513.51 337.96 513.51 361.23"/><polygon class="cls-29" points="473.21 337.96 493.36 349.6 513.51 337.96 493.36 326.33 473.21 337.96"/></g><g><polygon class="cls-31" points="473.21 332.25 493.36 343.88 493.36 320.61 473.21 308.98 473.21 332.25"/><polygon class="cls-32" points="513.51 332.25 493.36 343.88 493.36 320.61 513.51 308.98 513.51 332.25"/><polygon class="cls-29" points="473.21 308.98 493.36 320.61 513.51 308.98 493.36 297.34 473.21 308.98"/></g><g><polygon class="cls-31" points="473.21 303.26 493.36 314.9 493.36 291.63 473.21 279.99 473.21 303.26"/><polygon class="cls-32" points="513.51 303.26 493.36 314.9 493.36 291.63 513.51 279.99 513.51 303.26"/><polygon class="cls-29" points="473.21 279.99 493.36 291.63 513.51 279.99 493.36 268.36 473.21 279.99"/></g></g><g><g><polygon class="cls-31" points="448.11 404.71 468.26 416.35 468.26 393.08 448.11 381.44 448.11 404.71"/><polygon class="cls-32" points="488.41 404.71 468.26 416.35 468.26 393.08 488.41 381.44 488.41 404.71"/><polygon class="cls-29" points="448.11 381.44 468.26 393.08 488.41 381.44 468.26 369.81 448.11 381.44"/></g><g><polygon class="cls-31" points="448.11 375.73 468.26 387.36 468.26 364.09 448.11 352.46 448.11 375.73"/><polygon class="cls-32" points="488.41 375.73 468.26 387.36 468.26 364.09 488.41 352.46 488.41 375.73"/><polygon class="cls-29" points="448.11 352.46 468.26 364.09 488.41 352.46 468.26 340.82 448.11 352.46"/></g><g><polygon class="cls-31" points="448.11 346.74 468.26 358.37 468.26 335.1 448.11 323.47 448.11 346.74"/><polygon class="cls-32" points="488.41 346.74 468.26 358.37 468.26 335.1 488.41 323.47 488.41 346.74"/><polygon class="cls-29" points="448.11 323.47 468.26 335.1 488.41 323.47 468.26 311.84 448.11 323.47"/></g><g><polygon class="cls-31" points="448.11 317.75 468.26 329.39 468.26 306.12 448.11 294.48 448.11 317.75"/><polygon class="cls-32" points="488.41 317.75 468.26 329.39 468.26 306.12 488.41 294.48 488.41 317.75"/><polygon class="cls-29" points="448.11 294.48 468.26 306.12 488.41 294.48 468.26 282.85 448.11 294.48"/></g></g><g><g><polygon class="cls-31" points="548.52 375.73 568.67 387.36 568.67 364.09 548.52 352.46 548.52 375.73"/><polygon class="cls-32" points="588.82 375.73 568.67 387.36 568.67 364.09 588.82 352.46 588.82 375.73"/><polygon class="cls-29" points="548.52 352.46 568.67 364.09 588.82 352.46 568.67 340.82 548.52 352.46"/></g><g><polygon class="cls-31" points="548.52 346.74 568.67 358.37 568.67 335.1 548.52 323.47 548.52 346.74"/><polygon class="cls-32" points="588.82 346.74 568.67 358.37 568.67 335.1 588.82 323.47 588.82 346.74"/><polygon class="cls-29" points="548.52 323.47 568.67 335.1 588.82 323.47 568.67 311.84 548.52 323.47"/></g><g><polygon class="cls-31" points="548.52 317.75 568.67 329.39 568.67 306.12 548.52 294.48 548.52 317.75"/><polygon class="cls-32" points="588.82 317.75 568.67 329.39 568.67 306.12 588.82 294.48 588.82 317.75"/><polygon class="cls-29" points="548.52 294.48 568.67 306.12 588.82 294.48 568.67 282.85 548.52 294.48"/></g><g><polygon class="cls-31" points="548.52 288.77 568.67 300.4 568.67 277.13 548.52 265.5 548.52 288.77"/><polygon class="cls-32" points="588.82 288.77 568.67 300.4 568.67 277.13 588.82 265.5 588.82 288.77"/><polygon class="cls-29" points="548.52 265.5 568.67 277.13 588.82 265.5 568.67 253.86 548.52 265.5"/></g></g><g><g><polygon class="cls-31" points="523.41 390.22 543.57 401.85 543.57 378.58 523.41 366.95 523.41 390.22"/><polygon class="cls-32" points="563.72 390.22 543.57 401.85 543.57 378.58 563.72 366.95 563.72 390.22"/><polygon class="cls-29" points="523.41 366.95 543.57 378.58 563.72 366.95 543.57 355.31 523.41 366.95"/></g><g><polygon class="cls-31" points="523.41 361.23 543.57 372.87 543.57 349.6 523.41 337.96 523.41 361.23"/><polygon class="cls-32" points="563.72 361.23 543.57 372.87 543.57 349.6 563.72 337.96 563.72 361.23"/><polygon class="cls-29" points="523.41 337.96 543.57 349.6 563.72 337.96 543.57 326.33 523.41 337.96"/></g><g><polygon class="cls-31" points="523.41 332.25 543.57 343.88 543.57 320.61 523.41 308.98 523.41 332.25"/><polygon class="cls-32" points="563.72 332.25 543.57 343.88 543.57 320.61 563.72 308.98 563.72 332.25"/><polygon class="cls-29" points="523.41 308.98 543.57 320.61 563.72 308.98 543.57 297.34 523.41 308.98"/></g></g><g><g><polygon class="cls-31" points="498.31 404.71 518.46 416.35 518.46 393.08 498.31 381.44 498.31 404.71"/><polygon class="cls-32" points="538.62 404.71 518.46 416.35 518.46 393.08 538.62 381.44 538.62 404.71"/><polygon class="cls-29" points="498.31 381.44 518.46 393.08 538.62 381.44 518.46 369.81 498.31 381.44"/></g><g><polygon class="cls-31" points="498.31 375.73 518.46 387.36 518.46 364.09 498.31 352.46 498.31 375.73"/><polygon class="cls-32" points="538.62 375.73 518.46 387.36 518.46 364.09 538.62 352.46 538.62 375.73"/><polygon class="cls-29" points="498.31 352.46 518.46 364.09 538.62 352.46 518.46 340.82 498.31 352.46"/></g><g><polygon class="cls-31" points="498.31 346.74 518.46 358.37 518.46 335.1 498.31 323.47 498.31 346.74"/><polygon class="cls-32" points="538.62 346.74 518.46 358.37 518.46 335.1 538.62 323.47 538.62 346.74"/><polygon class="cls-29" points="498.31 323.47 518.46 335.1 538.62 323.47 518.46 311.84 498.31 323.47"/></g></g><g><g><polygon class="cls-31" points="473.21 419.2 493.36 430.84 493.36 407.57 473.21 395.93 473.21 419.2"/><polygon class="cls-32" points="513.51 419.2 493.36 430.84 493.36 407.57 513.51 395.93 513.51 419.2"/><polygon class="cls-29" points="473.21 395.93 493.36 407.57 513.51 395.93 493.36 384.3 473.21 395.93"/></g><g><polygon class="cls-31" points="473.21 390.22 493.36 401.85 493.36 378.58 473.21 366.95 473.21 390.22"/><polygon class="cls-32" points="513.51 390.22 493.36 401.85 493.36 378.58 513.51 366.95 513.51 390.22"/><polygon class="cls-29" points="473.21 366.95 493.36 378.58 513.51 366.95 493.36 355.31 473.21 366.95"/></g></g></g><g><g><polygon class="cls-31" points="308.28 511.98 328.43 523.61 328.43 500.34 308.28 488.71 308.28 511.98"/><polygon class="cls-32" points="348.59 511.98 328.43 523.61 328.43 500.34 348.59 488.71 348.59 511.98"/><polygon class="cls-29" points="308.28 488.71 328.43 500.34 348.59 488.71 328.43 477.07 308.28 488.71"/></g><g><g><polygon class="cls-31" points="383.59 497.49 403.74 509.12 403.74 485.85 383.59 474.22 383.59 497.49"/><polygon class="cls-32" points="423.89 497.49 403.74 509.12 403.74 485.85 423.89 474.22 423.89 497.49"/><polygon class="cls-29" points="383.59 474.22 403.74 485.85 423.89 474.22 403.74 462.58 383.59 474.22"/></g><g><polygon class="cls-31" points="383.59 468.5 403.74 480.13 403.74 456.86 383.59 445.23 383.59 468.5"/><polygon class="cls-32" points="423.89 468.5 403.74 480.13 403.74 456.86 423.89 445.23 423.89 468.5"/><polygon class="cls-29" points="383.59 445.23 403.74 456.86 423.89 445.23 403.74 433.6 383.59 445.23"/></g></g><g><g><polygon class="cls-31" points="358.48 511.98 378.64 523.61 378.64 500.34 358.48 488.71 358.48 511.98"/><polygon class="cls-32" points="398.79 511.98 378.64 523.61 378.64 500.34 398.79 488.71 398.79 511.98"/><polygon class="cls-29" points="358.48 488.71 378.64 500.34 398.79 488.71 378.64 477.07 358.48 488.71"/></g><g><polygon class="cls-31" points="358.48 482.99 378.64 494.63 378.64 471.36 358.48 459.72 358.48 482.99"/><polygon class="cls-32" points="398.79 482.99 378.64 494.63 378.64 471.36 398.79 459.72 398.79 482.99"/><polygon class="cls-29" points="358.48 459.72 378.64 471.36 398.79 459.72 378.64 448.09 358.48 459.72"/></g><g><polygon class="cls-31" points="358.48 454.01 378.64 465.64 378.64 442.37 358.48 430.74 358.48 454.01"/><polygon class="cls-32" points="398.79 454.01 378.64 465.64 378.64 442.37 398.79 430.74 398.79 454.01"/><polygon class="cls-29" points="358.48 430.74 378.64 442.37 398.79 430.74 378.64 419.1 358.48 430.74"/></g></g><g><g><polygon class="cls-31" points="333.38 526.47 353.53 538.11 353.53 514.84 333.38 503.2 333.38 526.47"/><polygon class="cls-32" points="373.69 526.47 353.54 538.11 353.54 514.84 373.69 503.2 373.69 526.47"/><polygon class="cls-29" points="333.38 503.2 353.54 514.84 373.69 503.2 353.53 491.57 333.38 503.2"/></g><g><polygon class="cls-31" points="333.38 497.49 353.53 509.12 353.53 485.85 333.38 474.22 333.38 497.49"/><polygon class="cls-32" points="373.69 497.49 353.54 509.12 353.54 485.85 373.69 474.22 373.69 497.49"/><polygon class="cls-29" points="333.38 474.22 353.54 485.85 373.69 474.22 353.53 462.58 333.38 474.22"/></g></g></g><g><polygon class="cls-31" points="418.05 514.84 438.21 526.47 438.21 503.2 418.05 491.57 418.05 514.84"/><polygon class="cls-32" points="458.36 514.84 438.21 526.47 438.21 503.2 458.36 491.57 458.36 514.84"/><polygon class="cls-29" points="418.05 491.57 438.21 503.2 458.36 491.57 438.21 479.93 418.05 491.57"/></g><g><path class="cls-15" d="M300.86,322.97l19.61-11.35,3.71-.89,1.26-.25c2.02-.39,3.88-1.37,5.35-2.8l4-3.88s.58-.58,0-1.07l1.07-1.07s.62-1.2-.85-1.16l.98-.89s.54-1.16-1.24-1.07c0,0,0-.9-1.42,0l-7.12,3.61-.67-.53s1.11-4.27-.93-4.32l-1.38,4.01-1.16,2.58-1.2,.49-.13,.09c-.75,.53-1.59,.91-2.48,1.14-1.32,.34-3.29,.77-4.68,.77,0,0-9.75,.67-12.42,1.91l-3.29-7.25-9.93,4.54v3.25l9.21,13.3c.84,1.21,2.46,1.57,3.73,.84Z"/><path class="cls-13" d="M292.13,431.04c-.33,1.43-1.22,4.67-3.08,6.24,0,0-1.14,1.29-2.66-.12,0,0-2.5-2.11-3.3,.24,.13-2.9-.22-5.29-.39-6.21,.08,.34,.16,.7,.24,1.04,0,0,6.51,.47,9.2-1.18Z"/><path class="cls-11" d="M298.9,433.49l-.24,7.36-8.45,1.07v1.5l-5.36,2.82-2.24-1.32c-.57-.88-.39-2.21-.2-3.04,.28-1.21,.51-2.43,.62-3.67,.03-.28,.04-.54,.05-.8,.8-2.34,3.3-.24,3.3-.24,1.51,1.41,2.66,.12,2.66,.12,1.86-1.57,2.75-4.8,3.08-6.24,.14-.09,.28-.18,.39-.28l.95,1.53,5.42,1.2Z"/><path class="cls-10" d="M302.15,371.23c-11.19,10.56-9.08,58.89-9.08,58.89-.13,.24-.32,.45-.54,.64-.12,.09-.25,.18-.39,.28-2.68,1.66-9.2,1.18-9.2,1.18-.08-.34-.16-.7-.24-1.04-.03-.12-.04-.22-.05-.29-.01-.07-.03-.11-.03-.11-4.38-20.6-.95-35.72-.95-35.72v-15.83c-5.07-21.32-2.95-28.91-2.95-28.91h23.43v20.9Z"/><path class="cls-10" d="M289.26,349.06l23.86,1.26s4.01,35.47-4.44,58.47l-1.47,32.93s-.57,.55-1.51,1.22c-1.92,1.38-5.41,3.29-8.79,2.11-.29-.11-.59-.22-.88-.38,0,0-.03-.28-.05-.78-.05-.59-.11-1.53-.18-2.71-.42-7.19-1.14-23.51,.67-30.01,.47-1.67,.62-3.4,.42-5.12-.57-4.94-1.38-14.86-.2-23.89l-5.61-9.55c-1.18-2.01-1.82-4.32-1.82-6.66"/><path class="cls-11" d="M323.65,451.11l-8.38,4.67c-1.25,.71-2.67,1.08-4.11,1.08h-3.36l-5.33-1.59v1.59h-5.69c-.59-1.65-.83-3.34-.86-4.97v-.42c.01-1.49,.18-2.91,.42-4.13l.58,.71c3.18,3.92,9.5,2.21,10.31-2.78v-.04l.03-.17c.12-.68,.89-1.04,1.49-.67l3.05,1.87,11.49,2.49c1.16,.25,1.38,1.79,.36,2.37Z"/><path class="cls-13" d="M307.24,445.23v.04c-.8,4.99-7.12,6.7-10.31,2.78l-.58-.71c.16-.87,.36-1.63,.55-2.28,3.38,1.18,6.87-.72,8.79-2.11,.11,.8,.49,1.72,1.54,2.28Z"/><path class="cls-15" d="M283.09,437.4c-.04,.11-.08,.21-.11,.33"/><path class="cls-9" d="M283.46,396.74s2.11-.28,3.52,1.83"/><path class="cls-9" d="M298.9,408.64s3.02-.07,4.64,2.39"/><path class="cls-15" d="M278.31,354.16s20,15.34,35.77,1.92v-3.45l-35.77,1.53Z"/><path class="cls-12" d="M288.43,283.97l-3.63,.9c-7.14,1.77-11.53,8.94-9.88,16.1l3.35,14.52c1.9,8.21,2.03,16.73,.4,25l-1.99,10.09c-.49,2.5,.81,5.01,3.14,6.03l5.37,2.37c5.4,2.38,11.55,2.38,16.94-.01l3.33-1.47c3.08-1.37,6.65-1.07,9.47,.79l1.34,.88c.81,.54,1.84,.61,2.72,.19l1.27-.61s-10.32-10.61-6.18-42.32l-6.47-23.27-17.39-9.2h-1.79Z"/><path class="cls-15" d="M308.85,277.29l-.67,.37-.32,6.7c-.04,.78-.66,1.4-1.43,1.43-1.49,.08-3.8,.04-4.86-.88l1.61,7.74-13.66-6.98,.38-3.03c.12-.87,.11-1.72-.03-2.58-.11-.74-.3-1.46-.59-2.15l-1.76-4.3c-.67-1.62-.95-3.38-.79-5.12,.22-2.65,1.36-5.16,3.3-6.95,1.42-1.33,3.4-2.55,5.99-2.93,0,0,8.38-1.79,10.84,5.19,0,0,.14,.29,.34,.82,.5,1.34,1.37,4.21,1.16,7.86l1.04,3.42c.17,.58,.08,1.03-.55,1.4Z"/><line class="cls-4" x1="300.58" y1="277.39" x2="301.18" y2="281.15"/><path class="cls-15" d="M307.2,264.61c-1.25,2.63-3.37,3.71-3.37,3.71v4.53l-3.83,2.09-2.59,5.69-1.47,.8c-1.04,.57-2.3,.58-3.35,.04l-2.72-1.41c-.11-.74-.3-1.46-.59-2.15l-1.76-4.3c-.67-1.62-.95-3.38-.79-5.12,.22-2.65,1.36-5.16,3.3-6.95,1.42-1.33,3.4-2.55,5.99-2.93,0,0,8.38-1.79,10.84,5.19,0,0,.14,.29,.34,.82Z"/><path class="cls-15" d="M302.24,279.21c-1.3,.59-3.1-.59-4.02-2.63-.92-2.04-.61-4.16,.7-4.75s3.1,.59,4.02,2.63"/><path class="cls-13" d="M309.39,325.27s.88,.61,3.93-1.25l-.49-8.78-4.38,6.23s-.74,1.22,.94,3.8Z"/><g><polygon class="cls-31" points="321.17 318.88 341.32 330.51 341.32 307.24 321.17 295.61 321.17 318.88"/><polygon class="cls-32" points="361.47 318.88 341.32 330.51 341.32 307.24 361.47 295.61 361.47 318.88"/><polygon class="cls-29" points="321.17 295.61 341.32 307.24 361.47 295.61 341.32 283.97 321.17 295.61"/></g><path class="cls-15" d="M322.51,335.47l19.61-11.35,3.71-.89,1.26-.25c2.02-.39,3.88-1.37,5.35-2.8l4-3.88s.58-.58,0-1.07l1.07-1.07s.62-1.2-.85-1.16l.98-.89s.54-1.16-1.24-1.07c0,0,0-.9-1.42,0l-7.12,3.61-.67-.53s1.11-4.27-.93-4.32l-1.38,4.01-.63,1.4c-.34,.76-.96,1.36-1.73,1.67h0l-.13,.09c-.74,.52-1.56,.9-2.43,1.13-1.32,.34-3.32,.78-4.73,.78,0,0-9.75,.67-12.42,1.91l-3.29-7.25-9.93,4.54v3.25l9.21,13.3c.84,1.21,2.46,1.57,3.73,.84Z"/><line class="cls-4" x1="351.19" y1="315.41" x2="356.85" y2="311.06"/><line class="cls-4" x1="352.34" y1="316.75" x2="356.66" y2="313.01"/><line class="cls-4" x1="352.57" y1="318.17" x2="356.44" y2="315.24"/><path class="cls-12" d="M290.21,283.97l16.95,9.26c2.37,1.29,4.28,3.28,5.48,5.69l7.62,15.34s-13.94,7.93-10.87,10.99l-7.72-14.45"/><path class="cls-14" d="M285.77,284.63s2.37-2.95,7.01-.66c0,0,6.99,2.15,14.83,9.2l-2.14-1.28c-1.99-1.19-4.25-1.82-6.56-1.86-4.04-.08-10.68-.93-13.13-5.4Z"/></g></g></svg>